<svg width="44" height="44" viewBox="0 0 44 44" fill="none" xmlns="http://www.w3.org/2000/svg">
<circle cx="22" cy="22" r="22" fill="#4285F4"/>
<path d="M17 16C17 17.1046 16.1046 18 15 18C13.8954 18 13 17.1046 13 16C13 14.8954 13.8954 14 15 14C16.1046 14 17 14.8954 17 16Z" fill="#4285F4"/>
<path d="M24 28C24 29.1046 23.1046 30 22 30C20.8954 30 20 29.1046 20 28C20 26.8954 20.8954 26 22 26C23.1046 26 24 26.8954 24 28Z" fill="#4285F4"/>
<path d="M29 24C30.1046 24 31 23.1046 31 22C31 20.8954 30.1046 20 29 20C27.8954 20 27 20.8954 27 22C27 23.1046 27.8954 24 29 24Z" fill="#4285F4"/>
<path d="M29 14V20M29 20C27.8954 20 27 20.8954 27 22C27 23.1046 27.8954 24 29 24M29 20C30.1046 20 31 20.8954 31 22C31 23.1046 30.1046 24 29 24M29 24V30M22 14V26M22 26C20.8954 26 20 26.8954 20 28C20 29.1046 20.8954 30 22 30C23.1046 30 24 29.1046 24 28C24 26.8954 23.1046 26 22 26ZM15 18V30M15 18C16.1046 18 17 17.1046 17 16C17 14.8954 16.1046 14 15 14C13.8954 14 13 14.8954 13 16C13 17.1046 13.8954 18 15 18Z" stroke="black" stroke-width="2" stroke-linecap="round" stroke-linejoin="round"/>
</svg>
