<svg width="397" height="85" viewBox="0 0 397 85" fill="none" xmlns="http://www.w3.org/2000/svg">
<path d="M217.6 25.7001C216.8 25.7001 215.3 26.9001 215.2 25.7001C215.2 25.0001 216.2 25.4001 216.5 25.1001C216.7 25.0001 216.8 24.4001 216.5 24.4001C216.2 24.3001 215.8 24.2001 215.4 24.4001C214.9 24.5001 214.7 25.0001 214.4 25.2001C214.1 25.4001 214 25.2001 213.9 25.4001C213.2 27.7001 217.9 28.5001 217.5 25.7001H217.6Z" fill="white"/>
<path d="M225.8 0H178.5V85H254.7L225.8 0ZM219.5 31C218.7 31.2 218.1 29.8 218.9 29.4C218.5 28.3 216.6 28.6 214.9 28.1C212.5 27.4 211.9 24.2 210.8 24C220.5 21.8 220.2 29.1 219.5 30.9V31ZM193.9 23.2C194.2 19.3 197.7 17.8 198.6 17.2C198.6 17.2 200.2 16.1 200.4 15C200.4 15 202 19.1 198.3 21.4C196.4 22.6 195.1 24 194.2 25.8C193.9 24.8 193.9 24 193.9 23.2ZM195.6 28.4C202.9 22.3 201.4 21.1 201.4 21.1C201.4 21.1 202.4 21.1 203 22.2C203.2 22.6 204.7 24.7 198.7 29.7C192.7 34.6 194.6 38.1 194.6 38.1C194.6 38.1 188.2 34.6 195.6 28.5V28.4ZM197.7 55.4C196.5 56.2 198.3 54.8 196.7 51C195.8 48.8 195 46.5 195.6 42.9C195.8 41.6 196.7 39.3 197.5 38C199 35.3 203.8 31.1 204 28C204.4 29.4 205.1 32.4 203.1 35.4C201.4 37.9 199.4 41.4 199 44.7C198.8 46.5 198.9 48.1 199 49.6C199.1 51.4 199.3 54.3 197.8 55.6L197.7 55.4ZM211.4 67.3C208.3 63.4 197.5 61.9 203.2 45.4C205.4 39.1 204.9 36.7 204.9 36.7C204.9 36.7 207.8 38.9 205.8 47.8C204.4 54 206 58.3 207.8 60.3C212.7 65.7 211.5 67.3 211.5 67.3H211.4ZM226.1 69.2C221 69.2 216.1 63.8 215.5 62.1C215.3 61.5 215.1 60 215.1 59.7C215.1 58.5 214.9 57.2 214.8 55.6C214.6 52.8 212.2 49.8 211.2 47.7C210.9 47 210.4 45.4 210.1 44.7C209.3 42.6 208.3 36.4 208.1 35.8C205.2 21.7 204.4 20.1 204.4 20.1C204.4 20.1 205.4 19.7 207.6 25.5C208.1 26.9 208.9 29.3 209.3 30.9C209.7 32.6 210.2 34.4 210.7 36.3C211.2 38.1 211.5 40 211.9 41.8C212.6 44.8 214.8 47 215.4 50C215.7 51.7 216.7 52.7 217.8 53.4C220.1 55 224.1 52.9 224.7 50.6C224.7 50.3 224.8 49.6 224.7 49.3C224.6 48 224.1 47.1 222.9 46.6C222.7 46.5 221.7 46 220.9 45.6C220 45.1 217.9 42.4 219.4 41.6C220.2 41.2 221.1 42.8 222.1 42.9C223.3 42.9 224.2 41.5 226 42.9V56.1C224.7 56.1 223.2 55.4 220.7 55.6C218.5 55.8 217.2 57.3 216.5 59C216.2 59.9 215.8 61.8 215.9 62C216 62.3 220.8 65.2 225.9 65.2V69.3L226.1 69.2Z" fill="white"/>
<path d="M271.6 59.7998H264.7L253.2 26.2998H259.4L268.2 51.6998L277 26.2998H283.2L271.7 59.7998H271.6Z" fill="white"/>
<path d="M293 26.2998V53.6998H306.8V59.2998H287.2V26.2998H293.1H293Z" fill="white"/>
<path d="M320.1 25.7998H327L338.5 59.2998H332.3L329.9 52.4998H317.1L314.7 59.2998H308.5L320 25.7998H320.1ZM328 46.8998L323.5 33.8998L319 46.8998H327.9H328Z" fill="white"/>
<path d="M348.4 26.2998V59.2998H342.5V26.2998H348.4Z" fill="white"/>
<path d="M353.1 42.7998C353.1 37.9998 354.7 33.7998 357.5 30.6998C360.3 27.5998 364.3 25.7998 369 25.7998C373.7 25.7998 377.6 27.5998 380.3 30.6998C383 33.7998 384.6 37.9998 384.6 42.7998C384.6 47.5998 383 51.7998 380.2 54.8998C377.4 57.9998 373.4 59.7998 368.7 59.7998C364 59.7998 360.1 57.8998 357.4 54.8998C354.7 51.7998 353.1 47.5998 353.1 42.7998ZM359 42.4998C359 45.7998 359.9 48.6998 361.6 50.7998C363.3 52.8998 365.8 54.0998 369.1 54.0998C372.4 54.0998 374.7 52.8998 376.4 50.8998C378 48.8998 378.9 46.0998 378.9 42.8998C378.9 39.6998 377.6 36.1998 375.7 34.1998C373.8 32.1998 371.3 31.1998 368.8 31.1998C366.3 31.1998 363.9 32.1998 362.1 33.9998C360.3 35.8998 359.1 38.6998 359.1 42.2998L359 42.4998Z" fill="white"/>
<path d="M82 28.4002L82.2 29.1002C82.9 28.6002 83.7 28.2002 84.8 28.2002C85.9 28.2002 87.2 28.8002 87.9 29.6002C88.6 30.4002 88.9 31.6002 88.9 32.8002C88.9 34.0002 88.5 35.7002 87.7 36.6002C86.9 37.6002 85.7 38.2002 84.1 38.2002C82.5 38.2002 82.9 38.2002 82.4 37.9002V42.2002H80.2V28.3002H82V28.4002ZM82.3 30.9002V35.8002C82.9 36.0002 83.5 36.1002 84.1 36.1002C85 36.1002 85.6 35.7002 86 35.2002C86.4 34.7002 86.6 33.9002 86.6 33.2002C86.6 32.5002 86.4 31.8002 86 31.2002C85.6 30.7002 85 30.3002 84.3 30.3002C83.6 30.3002 82.9 30.5002 82.3 30.9002Z" fill="white"/>
<path d="M98.8 36.4001L97.8 38.2001C97.1 38.2001 96.4 38.0001 95.6 37.2001C95.2 37.5001 94.9 37.7001 94.5 37.9001C94.1 38.1001 93.6 38.2001 93 38.2001C92.4 38.2001 91.5 38.1001 90.9 37.6001C90.3 37.2001 89.8 36.4001 89.8 35.1001C89.8 33.8001 90 33.6001 90.5 33.1001C91 32.6001 91.9 32.4001 93.1 32.4001C94.3 32.4001 94.2 32.4001 95.1 32.4001V31.9001C95.1 31.2001 94.9 30.8001 94.5 30.5001C94.2 30.2001 93.7 30.1001 93.2 30.1001C92.4 30.1001 91.4 30.4001 90.6 30.8001L90.1 28.9001C91.1 28.4001 92.4 28.1001 93.6 28.1001C94.8 28.1001 95.4 28.3001 96.1 28.8001C96.8 29.3001 97.2 30.1001 97.2 31.3001V34.9001C97.2 35.4001 97.3 35.7001 97.6 35.9001C97.8 36.1001 98.2 36.3001 98.6 36.3001L98.8 36.4001ZM95.3 34.7001V34.1001C94.3 34.1001 93.5 34.1001 93 34.2001C92.5 34.3001 92.2 34.6001 92.2 35.2001C92.2 35.8001 92.8 36.4001 93.5 36.4001C94.2 36.4001 94.2 36.4001 94.6 36.1001C95 35.9001 95.3 35.4001 95.3 34.7001Z" fill="white"/>
<path d="M106.5 28.6002L105.8 30.8002C105.3 30.5002 104.7 30.3002 104.2 30.3002C103.7 30.3002 102.9 30.6002 102.3 31.0002V38.0002H100.1V28.4002H101.9L102.1 29.2002C102.8 28.6002 103.6 28.2002 104.5 28.2002C105.4 28.2002 105.1 28.2002 105.5 28.2002C105.9 28.2002 106.2 28.4002 106.4 28.5002L106.5 28.6002Z" fill="white"/>
<path d="M108.4 28.3998V25.9998L110.3 25.7998H110.6V28.3998H113.5V30.4998H110.6V33.7998C110.6 35.3998 110.8 36.1998 112.3 36.1998C113.8 36.1998 113.7 36.0998 114.3 35.8998L114.7 37.8998C114.1 38.0998 112.8 38.2998 112.1 38.2998C109.8 38.2998 108.5 36.8998 108.5 34.4998V30.4998H107.3V28.3998H108.5H108.4Z" fill="white"/>
<path d="M117.7 28.3998L117.9 29.1998C118.8 28.5998 119.9 28.2998 121 28.2998C122.1 28.2998 122.8 28.5998 123.4 29.0998C124 29.6998 124.5 30.4998 124.5 31.6998V38.0998H122.3V32.2998C122.3 31.5998 122 31.0998 121.6 30.7998C121.2 30.4998 120.7 30.3998 120.1 30.3998C119.5 30.3998 118.6 30.5998 118 30.9998V38.0998H115.8V28.4998H117.6L117.7 28.3998Z" fill="white"/>
<path d="M133.8 35.5002V37.6002C132.9 38.0002 131.9 38.2002 131.1 38.2002C129.8 38.2002 128.5 37.8002 127.6 37.0002C126.7 36.2002 126.1 34.9002 126.1 33.2002C126.1 31.5002 126.6 30.3002 127.4 29.5002C128.2 28.7002 129.3 28.2002 130.4 28.2002C131.5 28.2002 131.3 28.2002 131.8 28.4002C132.4 28.6002 133 29.0002 133.4 29.6002C133.9 30.2002 134.2 31.2002 134.2 32.5002V33.9002H128.4C128.6 34.7002 129 35.2002 129.5 35.5002C130 35.8002 130.6 36.0002 131.2 36.0002C131.8 36.0002 132.9 35.8002 133.6 35.4002L133.8 35.5002ZM128.4 32.3002H132.3C132.3 31.6002 132 31.1002 131.7 30.8002C131.4 30.5002 130.9 30.3002 130.5 30.3002C130.1 30.3002 129.6 30.4002 129.2 30.8002C128.8 31.1002 128.5 31.6002 128.4 32.3002Z" fill="white"/>
<path d="M142.4 28.6002L141.7 30.8002C141.2 30.5002 140.6 30.3002 140.1 30.3002C139.6 30.3002 138.8 30.6002 138.2 31.0002V38.0002H136V28.4002H137.8L138 29.2002C138.7 28.6002 139.5 28.2002 140.4 28.2002C141.3 28.2002 141 28.2002 141.4 28.2002C141.8 28.2002 142.1 28.4002 142.3 28.5002L142.4 28.6002Z" fill="white"/>
<path d="M148.6 25.8C148.6 25.4 148.7 25.1 149 24.9C149.3 24.7 149.5 24.5 149.9 24.5C150.3 24.5 150.6 24.6 150.8 24.9C151 25.1 151.2 25.4 151.2 25.8C151.2 26.2 151.1 26.5 150.8 26.7C150.6 26.9 150.2 27.1 149.9 27.1C149.6 27.1 149.2 27 149 26.7C148.8 26.5 148.6 26.2 148.6 25.8ZM151 28.4V38H148.8V28.4H151Z" fill="white"/>
<path d="M154.8 28.3998L155 29.1998C155.9 28.5998 157 28.2998 158.1 28.2998C159.2 28.2998 159.9 28.5998 160.5 29.0998C161.1 29.6998 161.6 30.4998 161.6 31.6998V38.0998H159.4V32.2998C159.4 31.5998 159.1 31.0998 158.7 30.7998C158.3 30.4998 157.8 30.3998 157.2 30.3998C156.6 30.3998 155.7 30.5998 155.1 30.9998V38.0998H152.9V28.4998H154.7L154.8 28.3998Z" fill="white"/>
<path d="M7.1 51.7001H9L9.8 48.6001L11.8 49.3001L11.2 51.7001H13L13.8 48.6001L15.8 49.3001L15.2 51.7001H16.4L15.7 53.7001H14.7L14.2 55.4001H16L15.3 57.4001H13.7L12.9 60.5001L10.9 59.8001L11.5 57.4001H9.7L8.9 60.5001L6.9 59.8001L7.5 57.4001H6L6.7 55.4001H8L8.5 53.7001H6.5L7.2 51.7001H7.1ZM12.1 55.4001L12.6 53.7001H10.8L10.3 55.4001H12.1Z" fill="white"/>
<path d="M17.9 58.3C18.2 58.3 18.5 58.5 19 58.7C19.4 58.8 19.8999 58.9 20.2999 58.9C20.6999 58.9 21.1 58.9 21.4 58.7C21.6999 58.5 21.9 58.2 21.9 57.8C21.9 57.2 21.4 56.9 20.9 56.7C20.6 56.6 20.3 56.5 19.9 56.4C19.1999 56.2 18.6 55.8 18.2 55.2C18 54.9 17.9 54.5 17.9 53.9C17.9 52.9 18.3 52.2 18.9 51.7C19.5 51.2 20.3 51 21.2 51C22.1 51 22.7999 51.1 23.2999 51.4V53.3H23.2C22.7 53.1 22.2 53 21.5 53C20.8 53 20.6999 53 20.4 53.2C20.1 53.4 19.9 53.6 19.9 53.8C19.9 54.3 20.3 54.5 20.9 54.7L21.9 55C22.5999 55.2 23.2 55.6 23.6 56.3C23.8 56.6 23.9 57.1 23.9 57.7C23.9 58.8 23.4999 59.6 22.7999 60.1C22.0999 60.6 21.2 60.9 20.2 60.9C19.2 60.9 18.4 60.7 17.7 60.2V58.2L17.9 58.3Z" fill="white"/>
<path d="M26.1 51.2001V48.8001L28 48.6001H28.3V51.2001H31.2V53.3001H28.3V56.6001C28.3 58.2001 28.5 59.0001 30 59.0001C31.5 59.0001 31.4 58.9001 32 58.7001L32.4 60.7001C31.8 60.9001 30.5 61.1001 29.8 61.1001C27.5 61.1001 26.2 59.7001 26.2 57.3001V53.3001H25V51.2001H26.2H26.1Z" fill="white"/>
<path d="M40.9 58.3V60.4C40 60.8 39 61 38.2 61C36.9 61 35.6 60.6 34.7 59.8C33.8 59 33.2 57.7 33.2 56C33.2 54.3 33.6999 53.1 34.5999 52.3C35.3999 51.5 36.4999 51 37.5999 51C38.6999 51 38.5 51 39 51.2C39.6 51.4 40.1999 51.8 40.5999 52.4C41.0999 53 41.4 54 41.4 55.3V56.7H35.5999C35.7999 57.5 36.2 58 36.7 58.3C37.2 58.6 37.8 58.8 38.4 58.8C39 58.8 40.0999 58.6 40.7999 58.2L40.9 58.3ZM35.5 55.1H39.4C39.4 54.4 39.0999 53.9 38.7999 53.6C38.4999 53.3 37.9999 53.1 37.5999 53.1C37.1999 53.1 36.6999 53.2 36.2999 53.6C35.8999 53.9 35.6 54.4 35.5 55.1Z" fill="white"/>
<path d="M49.5001 51.4L48.8001 53.6C48.3001 53.3 47.7001 53.1 47.2001 53.1C46.7001 53.1 45.9001 53.4 45.3001 53.8V60.8H43.1001V51.2H44.9001L45.1001 52C45.8001 51.4 46.6001 51 47.5001 51C48.4001 51 48.1001 51 48.5001 51C48.9001 51 49.2001 51.2 49.4001 51.3L49.5001 51.4Z" fill="white"/>
<path d="M52.7 47.3999H53V55.2999L56.5 51.1999H59L55.2999 55.5999C55.5999 56.0999 56.3 56.8999 57 57.4999C57.7 58.0999 58.4999 58.7999 59.0999 58.9999L58.2 60.9999C57.5 60.9999 56.5999 60.3999 55.7999 59.5999C54.9999 58.8999 54.1999 57.8999 53.5999 57.1999L52.9 58.0999V60.7999H50.7V47.5999L52.5999 47.3999H52.7Z" fill="white"/>
<path d="M59.6001 56C59.6001 54.6 60.1001 53.3 60.9001 52.4C61.7001 51.5 62.9001 51 64.3001 51C65.7001 51 66.9001 51.5 67.7001 52.4C68.5001 53.3 69.0001 54.5 69.0001 55.9C69.0001 57.3 68.5001 58.6 67.7001 59.5C66.9001 60.4 65.7001 60.9 64.3001 60.9C62.9001 60.9 61.7001 60.4 60.9001 59.5C60.1001 58.6 59.6001 57.4 59.6001 56ZM61.8001 55.9C61.8001 56.7 62.0001 57.4 62.4001 58C62.8001 58.6 63.5001 58.9 64.3001 58.9C65.1001 58.9 65.7001 58.6 66.1001 58.1C66.5001 57.6 66.7001 56.9 66.7001 56C66.7001 55.1 66.5001 54.4 66.1001 53.9C65.7001 53.4 65.1001 53 64.2001 53C63.3001 53 62.7001 53.3 62.3001 53.8C61.9001 54.3 61.7001 55 61.7001 55.8L61.8001 55.9Z" fill="white"/>
<path d="M72.6 51.2001L72.8 52.0001C73.7 51.4001 74.8 51.1001 75.9 51.1001C77 51.1001 77.7 51.3001 78.3 51.9001C78.9 52.5001 79.4 53.3001 79.4 54.5001V60.9001H77.2V55.1001C77.2 54.4001 76.9 53.9001 76.5 53.6001C76.1 53.3001 75.6 53.2001 75 53.2001C74.4 53.2001 73.5 53.4001 72.9 53.8001V60.9001H70.7V51.3001H72.5L72.6 51.2001Z" fill="white"/>
<path d="M88.1 60.7998L87.7 60.0998C87 60.6998 86.2 60.9998 85.1 60.9998C84 60.9998 82.7 60.3998 82 59.5998C81.3 58.6998 81 57.5998 81 56.3998C81 54.5998 81.5 53.1998 82.5 52.2998C83.4 51.3998 84.7 50.9998 86.2 50.9998C87.7 50.9998 87.1 50.9998 87.6 50.9998V47.4998L89.4 47.2998H89.7V60.6998H88.1V60.7998ZM87.6 58.2998V53.1998C87.1 53.0998 86.5 52.9998 86.1 52.9998C85.3 52.9998 84.6 53.1998 84.1 53.6998C83.6 54.1998 83.3 54.8998 83.3 55.8998C83.3 56.8998 83.5 57.2998 83.9 57.8998C84.3 58.3998 84.9 58.7998 85.6 58.7998C86.3 58.7998 87 58.5998 87.6 58.1998V58.2998Z" fill="white"/>
<path d="M99.2 58.3V60.4C98.3 60.8 97.3 61 96.5 61C95.2 61 93.9 60.6 93 59.8C92.1 59 91.5 57.7 91.5 56C91.5 54.3 92 53.1 92.8 52.3C93.6 51.5 94.7 51 95.8 51C96.9 51 96.7 51 97.2 51.2C97.8 51.4 98.4 51.8 98.8 52.4C99.3 53 99.6 54 99.6 55.3V56.7H93.8C94 57.5 94.4 58 94.9 58.3C95.4 58.6 96 58.8 96.6 58.8C97.2 58.8 98.3 58.6 99 58.2L99.2 58.3ZM93.8 55.1H97.7C97.7 54.4 97.4 53.9 97.1 53.6C96.8 53.3 96.3 53.1 95.9 53.1C95.5 53.1 95 53.2 94.6 53.6C94.2 53.9 93.9 54.4 93.8 55.1Z" fill="white"/>
<path d="M107.8 51.4L107.1 53.6C106.6 53.3 106 53.1 105.5 53.1C105 53.1 104.2 53.4 103.6 53.8V60.8H101.4V51.2H103.2L103.4 52C104.1 51.4 104.9 51 105.8 51C106.7 51 106.4 51 106.8 51C107.2 51 107.5 51.2 107.7 51.3L107.8 51.4Z" fill="white"/>
<path d="M110.9 51.2001L111.1 52.0001C112 51.4001 113.1 51.1001 114.2 51.1001C115.3 51.1001 116 51.3001 116.6 51.9001C117.2 52.5001 117.7 53.3001 117.7 54.5001V60.9001H115.5V55.1001C115.5 54.4001 115.2 53.9001 114.8 53.6001C114.4 53.3001 113.9 53.2001 113.3 53.2001C112.7 53.2001 111.8 53.4001 111.2 53.8001V60.9001H109V51.3001H110.8L110.9 51.2001Z" fill="white"/>
<path d="M127 58.3V60.4C126.1 60.8 125.1 61 124.3 61C123 61 121.7 60.6 120.8 59.8C119.9 59 119.3 57.7 119.3 56C119.3 54.3 119.8 53.1 120.6 52.3C121.4 51.5 122.5 51 123.6 51C124.7 51 124.5 51 125 51.2C125.6 51.4 126.2 51.8 126.6 52.4C127.1 53 127.4 54 127.4 55.3V56.7H121.6C121.8 57.5 122.2 58 122.7 58.3C123.2 58.6 123.8 58.8 124.4 58.8C125 58.8 126.1 58.6 126.8 58.2L127 58.3ZM121.7 55.1H125.6C125.6 54.4 125.3 53.9 125 53.6C124.7 53.3 124.2 53.1 123.8 53.1C123.4 53.1 122.9 53.2 122.5 53.6C122.1 53.9 121.8 54.4 121.7 55.1Z" fill="white"/>
<path d="M131.1 51.2L131.3 51.9C132.1 51.3 133 51 133.8 51C134.6 51 135.6 51.4 136.1 52.1C137 51.4 138 51 139 51C140 51 140.6 51.3 141.1 51.8C141.6 52.3 142 53.2 142 54.4V60.8H139.8V55C139.8 54.3 139.6 53.8 139.3 53.5C139 53.2 138.6 53.1 138.1 53.1C137.6 53.1 137 53.3 136.5 53.6C136.5 53.9 136.5 54.1 136.5 54.4V60.8H134.3V55C134.3 54.3 134.1 53.8 133.8 53.5C133.5 53.2 133.1 53.1 132.7 53.1C132.3 53.1 131.6 53.3 131.1 53.6V60.8H128.9V51.2H130.7H131.1Z" fill="white"/>
<path d="M151.5 58.3V60.4C150.6 60.8 149.6 61 148.8 61C147.5 61 146.2 60.6 145.3 59.8C144.4 59 143.8 57.7 143.8 56C143.8 54.3 144.3 53.1 145.2 52.3C146 51.5 147.1 51 148.2 51C149.3 51 149.1 51 149.6 51.2C150.2 51.4 150.8 51.8 151.2 52.4C151.7 53 152 54 152 55.3V56.7H146.2C146.4 57.5 146.8 58 147.3 58.3C147.8 58.6 148.4 58.8 149 58.8C149.6 58.8 150.7 58.6 151.4 58.2L151.5 58.3ZM146.1 55.1H150C150 54.4 149.7 53.9 149.4 53.6C149.1 53.3 148.6 53.1 148.2 53.1C147.8 53.1 147.3 53.2 146.9 53.6C146.5 53.9 146.2 54.4 146.1 55.1Z" fill="white"/>
<path d="M155.5 51.2001L155.7 52.0001C156.6 51.4001 157.7 51.1001 158.8 51.1001C159.9 51.1001 160.6 51.3001 161.2 51.9001C161.8 52.5001 162.3 53.3001 162.3 54.5001V60.9001H160.1V55.1001C160.1 54.4001 159.8 53.9001 159.4 53.6001C159 53.3001 158.5 53.2001 157.9 53.2001C157.3 53.2001 156.4 53.4001 155.8 53.8001V60.9001H153.6V51.3001H155.4L155.5 51.2001Z" fill="white"/>
</svg>
